<svg width="324" height="82" viewBox="0 0 324 82" fill="none" xmlns="http://www.w3.org/2000/svg">
<path d="M125.506 53.473H121.241L108.407 34.054V53.473H104.142V27.4314H108.407L121.241 46.8129V27.4314H125.506V53.473ZM133.278 30.1253C132.504 30.1253 131.856 29.8634 131.332 29.3396C130.808 28.8158 130.546 28.1672 130.546 27.394C130.546 26.6207 130.808 25.9722 131.332 25.4483C131.856 24.9245 132.504 24.6626 133.278 24.6626C134.026 24.6626 134.662 24.9245 135.186 25.4483C135.71 25.9722 135.972 26.6207 135.972 27.394C135.972 28.1672 135.71 28.8158 135.186 29.3396C134.662 29.8634 134.026 30.1253 133.278 30.1253ZM135.373 32.8567V53.473H131.108V32.8567H135.373ZM165.93 32.52C167.551 32.52 168.998 32.8567 170.27 33.5302C171.567 34.2037 172.577 35.2015 173.301 36.5235C174.049 37.8455 174.423 39.442 174.423 41.3128V53.473H170.195V41.9488C170.195 40.103 169.734 38.6936 168.811 37.7208C167.888 36.7231 166.628 36.2242 165.032 36.2242C163.435 36.2242 162.163 36.7231 161.215 37.7208C160.292 38.6936 159.831 40.103 159.831 41.9488V53.473H155.603V41.9488C155.603 40.103 155.141 38.6936 154.218 37.7208C153.296 36.7231 152.036 36.2242 150.439 36.2242C148.843 36.2242 147.571 36.7231 146.623 37.7208C145.7 38.6936 145.239 40.103 145.239 41.9488V53.473H140.973V32.8567H145.239V35.2139C145.937 34.3658 146.823 33.7048 147.895 33.2309C148.968 32.7569 150.115 32.52 151.337 32.52C152.984 32.52 154.455 32.8692 155.752 33.5676C157.05 34.2661 158.047 35.2763 158.746 36.5983C159.369 35.3511 160.342 34.3658 161.664 33.6425C162.986 32.8941 164.408 32.52 165.93 32.52ZM184.116 35.9248C184.84 34.9271 185.825 34.1164 187.072 33.4928C188.344 32.8443 189.754 32.52 191.3 32.52C193.121 32.52 194.767 32.9565 196.239 33.8295C197.711 34.7026 198.871 35.9498 199.719 37.5712C200.567 39.1676 200.991 41.001 200.991 43.0713C200.991 45.1417 200.567 47 199.719 48.6463C198.871 50.2677 197.698 51.5399 196.202 52.4628C194.73 53.3608 193.096 53.8098 191.3 53.8098C189.704 53.8098 188.282 53.498 187.035 52.8744C185.812 52.2508 184.84 51.4526 184.116 50.4797V53.473H179.851V25.7851H184.116V35.9248ZM196.651 43.0713C196.651 41.6495 196.351 40.4273 195.753 39.4045C195.179 38.3569 194.406 37.5712 193.433 37.0473C192.485 36.4986 191.462 36.2242 190.365 36.2242C189.292 36.2242 188.269 36.4986 187.297 37.0473C186.349 37.5961 185.576 38.3943 184.977 39.442C184.403 40.4896 184.116 41.7244 184.116 43.1462C184.116 44.568 184.403 45.8152 184.977 46.8878C185.576 47.9354 186.349 48.7336 187.297 49.2824C188.269 49.8312 189.292 50.1056 190.365 50.1056C191.462 50.1056 192.485 49.8312 193.433 49.2824C194.406 48.7087 195.179 47.8855 195.753 46.8129C196.351 45.7404 196.651 44.4931 196.651 43.0713ZM223.88 32.8567V53.473H219.614V51.041C218.941 51.8891 218.055 52.5626 216.958 53.0614C215.885 53.5354 214.738 53.7724 213.515 53.7724C211.894 53.7724 210.435 53.4356 209.138 52.7621C207.866 52.0886 206.855 51.0909 206.107 49.7688C205.384 48.4468 205.022 46.8504 205.022 44.9796V32.8567H209.25V44.3435C209.25 46.1893 209.711 47.6112 210.634 48.6089C211.557 49.5817 212.817 50.0682 214.413 50.0682C216.01 50.0682 217.27 49.5817 218.192 48.6089C219.14 47.6112 219.614 46.1893 219.614 44.3435V32.8567H223.88ZM236.991 53.8098C235.369 53.8098 233.91 53.5229 232.613 52.9492C231.341 52.3505 230.331 51.5523 229.582 50.5546C228.834 49.5319 228.435 48.3969 228.385 47.1497H232.8C232.875 48.0227 233.287 48.7586 234.035 49.3572C234.808 49.931 235.769 50.2178 236.916 50.2178C238.113 50.2178 239.036 49.9933 239.685 49.5443C240.358 49.0704 240.695 48.4717 240.695 47.7484C240.695 46.9751 240.321 46.4014 239.573 46.0272C238.849 45.653 237.689 45.2415 236.093 44.7925C234.546 44.3684 233.287 43.9568 232.314 43.5577C231.341 43.1586 230.493 42.5475 229.77 41.7244C229.071 40.9012 228.722 39.8161 228.722 38.4691C228.722 37.3716 229.046 36.3738 229.695 35.4759C230.343 34.5529 231.266 33.8295 232.463 33.3057C233.686 32.7819 235.083 32.52 236.654 32.52C238.999 32.52 240.882 33.1186 242.304 34.316C243.751 35.4883 244.524 37.0972 244.624 39.1426H240.358C240.283 38.2197 239.909 37.4839 239.236 36.9351C238.562 36.3863 237.652 36.1119 236.504 36.1119C235.382 36.1119 234.521 36.324 233.923 36.748C233.324 37.1721 233.025 37.7333 233.025 38.4317C233.025 38.9805 233.224 39.442 233.623 39.8161C234.023 40.1903 234.509 40.4896 235.083 40.7141C235.656 40.9137 236.504 41.1756 237.627 41.4999C239.124 41.899 240.346 42.3105 241.294 42.7346C242.267 43.1337 243.102 43.7324 243.801 44.5306C244.499 45.3288 244.861 46.3889 244.886 47.7109C244.886 48.8833 244.561 49.931 243.913 50.8539C243.264 51.7768 242.341 52.5002 241.144 53.024C239.972 53.5479 238.587 53.8098 236.991 53.8098ZM273.133 40.1155C274.53 40.3649 275.715 41.1007 276.687 42.323C277.66 43.5453 278.147 44.9297 278.147 46.4762C278.147 47.7982 277.797 48.9956 277.099 50.0682C276.425 51.1158 275.44 51.9514 274.143 52.575C272.846 53.1737 271.337 53.473 269.616 53.473H259.214V27.4688H269.129C270.9 27.4688 272.422 27.7681 273.694 28.3668C274.966 28.9654 275.927 29.7761 276.575 30.7988C277.224 31.7966 277.548 32.9191 277.548 34.1663C277.548 35.6629 277.149 36.9101 276.351 37.9079C275.552 38.9057 274.48 39.6415 273.133 40.1155ZM263.479 38.3943H268.755C270.152 38.3943 271.237 38.0825 272.01 37.4589C272.809 36.8104 273.208 35.8874 273.208 34.6901C273.208 33.5177 272.809 32.6073 272.01 31.9587C271.237 31.2852 270.152 30.9485 268.755 30.9485H263.479V38.3943ZM269.242 49.9933C270.688 49.9933 271.823 49.6441 272.646 48.9457C273.47 48.2472 273.881 47.2744 273.881 46.0272C273.881 44.7551 273.445 43.7448 272.572 42.9965C271.699 42.2482 270.539 41.874 269.092 41.874H263.479V49.9933H269.242ZM291.724 53.8098C289.779 53.8098 288.02 53.3732 286.449 52.5002C284.877 51.6022 283.642 50.355 282.744 48.7586C281.846 47.1372 281.397 45.2664 281.397 43.1462C281.397 41.0509 281.859 39.1925 282.782 37.5712C283.705 35.9498 284.964 34.7026 286.561 33.8295C288.157 32.9565 289.941 32.52 291.911 32.52C293.882 32.52 295.665 32.9565 297.262 33.8295C298.858 34.7026 300.118 35.9498 301.041 37.5712C301.964 39.1925 302.425 41.0509 302.425 43.1462C302.425 45.2415 301.951 47.0998 301.003 48.7212C300.056 50.3425 298.758 51.6022 297.112 52.5002C295.491 53.3732 293.695 53.8098 291.724 53.8098ZM291.724 50.1056C292.822 50.1056 293.844 49.8437 294.792 49.3198C295.765 48.796 296.551 48.0103 297.15 46.9626C297.748 45.915 298.048 44.6428 298.048 43.1462C298.048 41.6495 297.761 40.3898 297.187 39.3671C296.613 38.3195 295.852 37.5337 294.905 37.0099C293.957 36.4861 292.934 36.2242 291.836 36.2242C290.739 36.2242 289.716 36.4861 288.768 37.0099C287.845 37.5337 287.11 38.3195 286.561 39.3671C286.012 40.3898 285.738 41.6495 285.738 43.1462C285.738 45.3662 286.299 47.0873 287.421 48.3096C288.569 49.5069 290.003 50.1056 291.724 50.1056ZM315.472 43.0339L322.132 53.473H317.305L312.853 46.4762L308.662 53.473H304.21L310.87 43.3332L304.21 32.8567H309.037L313.489 39.8535L317.68 32.8567H322.132L315.472 43.0339Z" fill="#FA7275"/>
<rect opacity="0.2" width="74.8323" height="74.8323" rx="37.4161" fill="#FA7275"/>
<rect x="32.7391" y="31.1802" width="49.8882" height="49.8882" rx="24.9441" fill="#FA7275"/>
</svg>
